<svg xmlns="http://www.w3.org/2000/svg" xmlns:xlink="http://www.w3.org/1999/xlink" width="306.626" height="70.294" viewBox="0 0 306.626 70.294">
  <defs>
    <clipPath id="clip-path">
      <rect id="Rectangle_243" data-name="Rectangle 243" width="306.626" height="70.294" fill="#fff"/>
    </clipPath>
  </defs>
  <g id="Group_490" data-name="Group 490" clip-path="url(#clip-path)">
    <path id="Path_214" data-name="Path 214" d="M26.524,40.1H15.306Q7.867,40.044,3.932,36.32T0,26.17V.129H6.116V28.136a10.341,10.341,0,0,0,.823,4.408,8.266,8.266,0,0,0,2.122,2.851,7.353,7.353,0,0,0,2.953,1.51,13.336,13.336,0,0,0,3.292.429H26.524Z" transform="translate(0 -0.075)" fill="#fff"/>
    <rect id="Rectangle_240" data-name="Rectangle 240" width="6.109" height="26.687" transform="translate(29.775 13.177)" fill="#fff"/>
    <path id="Path_215" data-name="Path 215" d="M111,59.757a11.63,11.63,0,0,0-4.306-1.245,12.532,12.532,0,0,1-5.789-1.041,11.227,11.227,0,0,1-3.912-3,12.165,12.165,0,0,1-2.225-4.252,16.6,16.6,0,0,1-.721-4.836,12.993,12.993,0,0,1,4.225-9.728q4.01-3.561,11.4-3.558,7.01,0,10.946,3.558a12.978,12.978,0,0,1,4.142,8.862,10.082,10.082,0,0,1,0,1.731,13.392,13.392,0,0,1-2.863,7.536,13.029,13.029,0,0,1-7.606,4.354c.857.463,1.578.9,2.183,1.3a8.506,8.506,0,0,1,1.544,1.306,4.633,4.633,0,0,1,.979,1.6,7.663,7.663,0,0,1,.456,2.122v4.782h-6.225a6.232,6.232,0,0,0,.082-1.034c.014-.558.014-1.15,0-1.81s-.02-1.3-.02-1.932V63.179A4.535,4.535,0,0,0,111,59.75M100.159,47.077a9.387,9.387,0,0,0,.973,4.068,7.8,7.8,0,0,0,2.184,2.605,7.925,7.925,0,0,0,2.9,1.381,11.585,11.585,0,0,0,3.191.347,11.864,11.864,0,0,0,3.32-.374,7.806,7.806,0,0,0,3-1.483,7.612,7.612,0,0,0,2.149-2.87,10.8,10.8,0,0,0,.83-4.463V44.424a10.547,10.547,0,0,0-.83-4.456,7.718,7.718,0,0,0-2.149-2.884,7.962,7.962,0,0,0-3-1.483,11.625,11.625,0,0,0-3.32-.367,10.733,10.733,0,0,0-3.3.395,8.148,8.148,0,0,0-2.979,1.517,7.769,7.769,0,0,0-2.15,2.844,10.507,10.507,0,0,0-.816,4.436Z" transform="translate(-54.479 -18.594)" fill="#fff"/>
    <path id="Path_216" data-name="Path 216" d="M180.554,50.314a7.061,7.061,0,0,0,1.279,2.844,4.665,4.665,0,0,0,2.116,1.51,7.881,7.881,0,0,0,2.925.4,9.166,9.166,0,0,0,3.027-.374,5.266,5.266,0,0,0,2.367-1.49,7.074,7.074,0,0,0,1.51-2.878,16.028,16.028,0,0,0,.531-4.462V31.579h6.109V44.232c0,4.327-1.136,7.728-3.422,10.232s-5.571,3.748-9.864,3.748a16.418,16.418,0,0,1-6.054-.993,10.281,10.281,0,0,1-4.068-2.8,11.106,11.106,0,0,1-2.286-4.375A21.84,21.84,0,0,1,174,44.225V31.579h6.116v14.3a19.325,19.325,0,0,0,.429,4.436" transform="translate(-100.799 -18.294)" fill="#fff"/>
    <rect id="Rectangle_241" data-name="Rectangle 241" width="6.109" height="26.687" transform="translate(103.524 13.177)" fill="#fff"/>
    <path id="Path_217" data-name="Path 217" d="M295.568,32.15a10.317,10.317,0,0,1-6.667,6.83,18.33,18.33,0,0,1-6.252.939,16.646,16.646,0,0,1-5.946-.939,10.394,10.394,0,0,1-4.04-2.653,11.107,11.107,0,0,1-2.388-4.177,18.787,18.787,0,0,1-.822-4.158,15.406,15.406,0,0,1,0-2.719,19.1,19.1,0,0,1,.824-4.225,11.729,11.729,0,0,1,2.388-4.279A10.727,10.727,0,0,1,276.7,14a15.887,15.887,0,0,1,5.946-.979,14.672,14.672,0,0,1,4.231.551,23.846,23.846,0,0,1,3.374,1.3L290.357,0h6.109V26.633a19.914,19.914,0,0,1-.9,5.524m-5.728-10.925a7.977,7.977,0,0,0-1.517-2.979,5.677,5.677,0,0,0-2.368-1.653,7.932,7.932,0,0,0-3.027-.449,8.384,8.384,0,0,0-3.034.429,5.4,5.4,0,0,0-2.361,1.619,7.686,7.686,0,0,0-1.517,3,16.656,16.656,0,0,0-.53,4.517v1.857a16.069,16.069,0,0,0,.53,4.463,7,7,0,0,0,1.517,2.877,5.228,5.228,0,0,0,2.361,1.483,9.4,9.4,0,0,0,3.034.374,8.849,8.849,0,0,0,3.027-.4,5.6,5.6,0,0,0,2.368-1.51,7.02,7.02,0,0,0,1.517-2.844,15.8,15.8,0,0,0,.524-4.442v-1.85a16.613,16.613,0,0,0-.524-4.49" transform="translate(-156.057)" fill="#fff"/>
    <path id="Path_218" data-name="Path 218" d="M527.3,40.093H516.082q-7.439-.051-11.368-3.775t-3.939-10.143V.127h6.109V28.134a10.446,10.446,0,0,0,.823,4.409,8.176,8.176,0,0,0,2.122,2.85,7.4,7.4,0,0,0,2.953,1.51,12.983,12.983,0,0,0,3.292.429H527.3Z" transform="translate(-290.096 -0.074)" fill="#fff"/>
    <rect id="Rectangle_242" data-name="Rectangle 242" width="6.123" height="26.687" transform="translate(240.442 13.176)" fill="#fff"/>
    <path id="Path_219" data-name="Path 219" d="M610.117,3.209a13.355,13.355,0,0,0-3.3.422,7.346,7.346,0,0,0-2.946,1.517,8.056,8.056,0,0,0-2.129,2.878,10.382,10.382,0,0,0-.823,4.381v7.388h14.238v2.442H600.919V50.719H594.8V14.052q0-6.429,3.932-10.15T610.117.127h4.993V3.209Z" transform="translate(-344.566 -0.074)" fill="#fff"/>
    <path id="Path_220" data-name="Path 220" d="M651.916,47.2a17.24,17.24,0,0,0,.619,2.98A8.47,8.47,0,0,0,653.964,53a7.828,7.828,0,0,0,2.578,2.122,8.418,8.418,0,0,0,3.987.85,21.575,21.575,0,0,0,5.313-.9l.429,1.748c-1.1.5-2.218.959-3.354,1.381a8.749,8.749,0,0,1-3.565.537,13.8,13.8,0,0,1-5.177-.959,12.377,12.377,0,0,1-4.116-2.68,12.941,12.941,0,0,1-2.789-4.123,14.356,14.356,0,0,1-1.143-5.265,13.152,13.152,0,0,1,.953-4.993,12.653,12.653,0,0,1,2.694-4.123,12.971,12.971,0,0,1,4.061-2.844,13.416,13.416,0,0,1,5.1-1.163,13.954,13.954,0,0,1,5.32,1.088,12.4,12.4,0,0,1,4.1,2.817,12.1,12.1,0,0,1,2.605,4.149,12.493,12.493,0,0,1,.8,4.966c0,.177-.014.435-.027.776s-.027.612-.027.823Zm4.021-10.864a6.748,6.748,0,0,0-2.021,1.857,9.333,9.333,0,0,0-1.3,2.633,14.211,14.211,0,0,0-.633,3.075h13.925c-.292-2.9-1.047-5.007-2.292-6.32a6.289,6.289,0,0,0-4.776-1.966h-.108a5.334,5.334,0,0,0-2.789.714" transform="translate(-374.297 -18.873)" fill="#fff"/>
    <path id="Path_221" data-name="Path 221" d="M710.848.127V.992h-1.456v4h-1.021v-4H706.91V.127Z" transform="translate(-409.508 -0.074)" fill="#fff"/>
    <path id="Path_222" data-name="Path 222" d="M720.882.127h1.463V4.991h-.952V1.7c0-.1,0-.231.007-.395s.007-.3.007-.395l-.918,4.082h-.993L718.575.909V1.3c0,.17.007.3.007.395V4.984h-.952V.127h1.476L720,3.95Z" transform="translate(-415.719 -0.074)" fill="#fff"/>
    <path id="Path_223" data-name="Path 223" d="M443.175,3.209a13.358,13.358,0,0,0-3.3.422,7.347,7.347,0,0,0-2.946,1.517A8.058,8.058,0,0,0,434.8,8.025a10.382,10.382,0,0,0-.823,4.381v7.388h14.238v2.442H433.977V50.719h-6.115V14.052q0-6.429,3.932-10.15T443.175.127h4.993V3.209Z" transform="translate(-247.858 -0.074)" fill="#fff"/>
    <path id="Path_224" data-name="Path 224" d="M368.958,30.509H366.41a12.024,12.024,0,0,0-12.024,12.024v2.09A12.024,12.024,0,0,0,366.41,56.647h2.548a12.024,12.024,0,0,0,12.024-12.024v-2.09a12.024,12.024,0,0,0-12.024-12.024m6.165,14.181a15.8,15.8,0,0,1-.524,4.442,7.025,7.025,0,0,1-1.517,2.844,5.6,5.6,0,0,1-2.367,1.51,8.86,8.86,0,0,1-3.027.4,9.413,9.413,0,0,1-3.034-.374,5.232,5.232,0,0,1-2.361-1.483,7,7,0,0,1-1.517-2.878,16.063,16.063,0,0,1-.531-4.462V42.833a16.653,16.653,0,0,1,.531-4.517,7.685,7.685,0,0,1,1.517-3,5.4,5.4,0,0,1,2.361-1.619,8.375,8.375,0,0,1,3.034-.429,7.925,7.925,0,0,1,3.027.449,5.673,5.673,0,0,1,2.367,1.653,7.978,7.978,0,0,1,1.517,2.98,16.629,16.629,0,0,1,.524,4.49Z" transform="translate(-205.294 -17.674)" fill="#fff"/>
    <text id="an_" data-name="an " transform="translate(72.747 66.23)" fill="#fff" font-size="12" font-family="Montserrat-Regular, Montserrat"><tspan x="0" y="0">an </tspan></text>
    <text id="eaula" transform="translate(92.533 65.23)" fill="#fff" font-size="11" font-family="Montserrat-Bold, Montserrat" font-weight="700"><tspan x="0" y="0" letter-spacing="-0.015em">e</tspan><tspan y="0">aula</tspan></text>
    <text id="_water_company" data-name=" water company" transform="translate(129.257 65.23)" fill="#fff" font-size="11" font-family="Montserrat-Regular, Montserrat"><tspan x="0" y="0"> </tspan><tspan y="0" letter-spacing="-0.015em">w</tspan><tspan y="0">a</tspan><tspan y="0" letter-spacing="-0.018em">t</tspan><tspan y="0">er </tspan><tspan y="0" letter-spacing="-0.008em">c</tspan><tspan y="0">om</tspan><tspan y="0" letter-spacing="-0.002em">p</tspan><tspan y="0">a</tspan><tspan y="0" letter-spacing="-0.009em">n</tspan><tspan y="0">y</tspan></text>
  </g>
</svg>
